<svg xmlns="http://www.w3.org/2000/svg" width="60" height="40" viewBox="0 0 60 40">
  <g fill="none" fill-rule="evenodd" stroke-linecap="round" stroke-linejoin="round">
    <g stroke="#000" stroke-width="2" transform="translate(9 5.5)">
      <line x1="24" x2="32" y1="4.5" y2="4.5"/>
      <line x1="24" x2="32" y1=".5" y2=".5"/>
      <line x1="24" x2="32" y1="8.5" y2="8.5"/>
      <polyline points="20 .5 20 8.5 20 4.5 12 4.5 12 .5 12 8.5"/>
      <polyline points="8 8.5 5 5.5 8 2.5 8 .5 0 .5 0 8.5"/>
      <polyline points="35 8.5 39 .5 40 .5 44 8.5"/>
    </g>
    <g stroke="#FFF" stroke-width="2" transform="translate(9 25.5)">
      <line x1="24" x2="32" y1="4.5" y2="4.5"/>
      <line x1="24" x2="32" y1=".5" y2=".5"/>
      <line x1="24" x2="32" y1="8.5" y2="8.5"/>
      <polyline points="20 .5 20 8.5 20 4.5 12 4.5 12 .5 12 8.5"/>
      <polyline points="8 8.5 5 5.5 8 2.5 8 .5 0 .5 0 8.5"/>
      <polyline points="35 8.5 39 .5 40 .5 44 8.5"/>
    </g>
  </g>
</svg>
